# xmcd
#
# Track frame offsets: 
#        150
#        15659
#        31684
#        52700
#        67485
#        86841
#        104695
#        129612
#        146374
#        164462
#        185375
#        206391
#        225511
#
# Disc length: 3362 seconds
#
# Revision: 0
# Processed by: cddbd v1.5.2PL0 Copyright (c) Steve Scherf et al.
# Submitted via: ExactAudioCopy v0.99pb4
#
DISCID=ad0d200d
DTITLE=Mud Bay Blues Band - Mudified
DYEAR=2009
DGENRE=Blues
TTITLE0=Possum Huntin'
TTITLE1=Blues Bastard
TTITLE2=Mean To Me
TTITLE3=A Good Fool Is Hard To Find
TTITLE4=The Devil Rocked My Cradle
TTITLE5=Healing Chamber
TTITLE6=Hard On Your Man
TTITLE7=Soul Shaken
TTITLE8=Blue Note
TTITLE9=I Wonder
TTITLE10=Talk To Your Man
TTITLE11=Dead End Town
TTITLE12=Tacky Blues Singer
EXTD=
EXTT0=
EXTT1=
EXTT2=
EXTT3=
EXTT4=
EXTT5=
EXTT6=
EXTT7=
EXTT8=
EXTT9=
EXTT10=
EXTT11=
EXTT12=
PLAYORDER=
